<?xml version="1.0" standalone="no"?>
<!DOCTYPE svg PUBLIC "-//W3C//DTD SVG 20010904//EN"
 "http://www.w3.org/TR/2001/REC-SVG-20010904/DTD/svg10.dtd">
<svg version="1.0" xmlns="http://www.w3.org/2000/svg"
 width="2471.000000pt" height="816.000000pt" viewBox="0 0 2471.000000 816.000000"
 preserveAspectRatio="xMidYMid meet">
<metadata>
Created by potrace 1.16, written by Peter Selinger 2001-2019
</metadata>
<g transform="translate(0.000000,816.000000) scale(0.100000,-0.100000)"
fill="#000000" stroke="none">
<path d="M0 8153 c0 -5 921 -929 2047 -2055 l2048 -2048 -2025 -2025 -2025
-2025 1305 0 1305 0 1375 1375 1375 1375 1375 -1375 1375 -1375 1303 0 1304 0
-2029 2024 -2028 2025 2048 2048 c1126 1126 2047 2051 2047 2056 0 4 -584 7
-1297 7 l-1298 0 -1402 -1402 -1403 -1403 -1403 1403 -1402 1402 -1298 0
c-713 0 -1297 -3 -1297 -7z"/>
<path d="M13570 4615 l0 -2795 485 0 485 0 0 165 c0 91 2 165 5 165 3 0 36
-22 73 -48 352 -254 765 -382 1232 -382 523 0 996 164 1365 472 365 305 625
712 740 1162 57 222 70 332 70 591 0 252 -12 352 -66 569 -154 616 -581 1147
-1144 1421 -196 95 -382 153 -620 192 -155 25 -552 25 -715 0 -341 -53 -604
-159 -853 -343 l-87 -64 0 845 0 845 -485 0 -485 0 0 -2795z m2503 522 c742
-195 1138 -1015 829 -1716 -158 -359 -477 -611 -882 -698 -130 -28 -436 -25
-543 5 -338 93 -599 304 -754 608 -56 109 -103 248 -124 364 -22 118 -17 363
10 487 83 393 311 696 651 864 180 89 331 120 555 115 132 -3 177 -8 258 -29z"/>
<path d="M18700 6940 l0 -470 475 0 475 0 0 470 0 470 -475 0 -475 0 0 -470z"/>
<path d="M10518 6154 c-436 -63 -858 -275 -1199 -602 -443 -424 -679 -983
-679 -1607 0 -761 375 -1465 1003 -1881 609 -405 1495 -460 2162 -135 371 181
672 464 898 846 73 122 187 360 187 389 0 14 -53 16 -532 16 l-533 0 -39 -60
c-21 -34 -71 -93 -110 -133 -225 -230 -555 -350 -916 -334 -526 24 -902 284
-1043 722 -14 44 -31 107 -37 140 -6 33 -13 70 -16 83 l-4 22 1688 0 1689 0 6
121 c7 140 -7 419 -29 563 -48 326 -147 593 -313 843 -369 557 -950 924 -1589
1007 -152 20 -457 20 -594 0z m542 -910 c406 -62 707 -306 867 -702 23 -59 43
-113 43 -119 0 -10 -234 -13 -1135 -13 -732 0 -1135 3 -1135 10 0 18 47 135
85 210 55 109 108 183 198 277 282 293 636 404 1077 337z"/>
<path d="M22175 6139 c-314 -30 -613 -125 -860 -274 -262 -157 -514 -401 -691
-667 -485 -732 -481 -1774 11 -2513 340 -512 852 -833 1486 -932 159 -25 537
-24 699 1 234 35 407 92 565 184 94 56 271 225 332 318 l40 62 6 -157 c4 -86
7 -198 7 -248 l0 -93 470 0 470 0 0 2115 0 2115 -475 0 -475 0 0 -242 0 -243
-37 45 c-163 202 -393 361 -646 445 -248 82 -586 114 -902 84z m485 -985 c89
-16 228 -63 301 -99 88 -45 227 -145 301 -218 329 -321 464 -803 342 -1225
-54 -187 -155 -361 -294 -506 -331 -346 -766 -457 -1212 -310 -415 137 -727
508 -802 953 -20 119 -21 312 -1 424 88 502 473 891 974 981 105 19 291 19
391 0z"/>
<path d="M18700 3935 l0 -2115 475 0 475 0 0 2115 0 2115 -475 0 -475 0 0
-2115z"/>
</g>
</svg>
